# File created by Blade
# Date/Time:  Thu Jan 22 16:36:34 2015
#---------------------------------------------------------
:version 1.10
:name HOM
:units
  mass 1.0
  length 1.000000
  angle deg
:documentation
     Acclaim Skeleton File
:root
   axis xyz
   order TX TY TZ RX RY RZ
   position 0.000000 0.000000 0.000000
   orientation 0 0 0
:bonedata
   begin
      id 1
      name RightUpLeg_dum
      direction -1.000000 0.000000 0.000000
      length 3.766986
      axis 0.0 0.0 0.0 xyz
   end
   begin
      id 2
      name LeftUpLeg_dum
      direction 1.000000 0.000000 0.000000
      length 3.766986
      axis 0.0 0.0 0.0 xyz
   end
   begin
      id 3
      name Spine_dum
      direction 0.000000 1.000000 0.000000
      length 7.779697
      axis 0.0 0.0 0.0 xyz
   end
   begin
      id 4
      name RightUpLeg
      direction 0.000000 -1.000000 0.000000
      length 18.017682
      axis 0.0 0.0 0.0 xyz
      dof rx ry rz
   end
   begin
      id 5
      name RightLeg
      direction 0.000000 -1.000000 0.000000
      length 16.881075
      axis 0.0 0.0 0.0 xyz
      dof rx ry rz
   end
   begin
      id 6
      name RightFoot
      direction 0.000000 -0.258819 0.965926
      length 5.770812
      axis 15.0 0.0 0.0 xyz
      dof rx ry rz
   end
   begin
      id 7
      name RightToeBase
      direction 0.000000 0.000000 1.000000
      length 2.952750
      axis 0.0 0.0 0.0 xyz
      dof rx ry rz
   end
   begin
      id 8
      name LeftUpLeg
      direction 0.000000 -1.000000 0.000000
      length 18.017682
      axis 0.0 0.0 0.0 xyz
      dof rx ry rz
   end
   begin
      id 9
      name LeftLeg
      direction 0.000000 -1.000000 0.000000
      length 16.881075
      axis 0.0 0.0 0.0 xyz
      dof rx ry rz
   end
   begin
      id 10
      name LeftFoot
      direction 0.000000 -0.258819 0.965926
      length 5.770812
      axis 15.0 0.0 0.0 xyz
      dof rx ry rz
   end
   begin
      id 11
      name LeftToeBase
      direction 0.000000 0.000000 1.000000
      length 2.952750
      axis 0.0 0.0 0.0 xyz
      dof rx ry rz
   end
   begin
      id 12
      name Spine
      direction 0.000000 1.000000 0.000000
      length 0.000000
      axis 0.0 0.0 0.0 xyz
      dof rx ry rz
   end
   begin
      id 13
      name Spine_dum1
      direction 0.000000 1.000000 0.000000
      length 10.941760
      axis 0.0 0.0 0.0 xyz
   end
   begin
      id 14
      name Spine_dum2
      direction 0.000000 1.000000 0.000000
      length 10.941760
      axis 0.0 0.0 0.0 xyz
   end
   begin
      id 15
      name Spine_dum3
      direction 0.000000 1.000000 0.000000
      length 16.646042
      axis 0.0 0.0 0.0 xyz
   end
   begin
      id 16
      name RightShoulder
      direction -1.000000 0.000000 0.000000
      length 7.708937
      axis 0.0 0.0 90.0 xyz
      dof rx ry rz
   end
   begin
      id 17
      name RightArm
      direction -1.000000 0.000000 0.000000
      length 11.521345
      axis 0.0 0.0 90.0 xyz
      dof rx ry rz
   end
   begin
      id 18
      name RightForeArm
      direction -1.000000 0.000000 0.000000
      length 10.175898
      axis 0.0 0.0 90.0 xyz
      dof ry rz rx
   end
   begin
      id 19
      name RightHand
      direction -1.000000 0.000000 0.000000
      length 0.000000
      axis 0.0 0.0 90.0 xyz
      dof rx ry rz
   end
   begin
      id 20
      name RightHand_dum1
      direction -1.000000 0.000000 0.000000
      length 3.937000
      axis 0.0 0.0 90.0 xyz
   end
   begin
      id 21
      name RightHand_dum2
      direction 0.000000 0.000000 0.000000
      length 0.000000
      axis 0.0 0.0 90.0 xyz
   end
   begin
      id 22
      name RightHandThumb1
      direction 0.000000 0.000000 1.000000
      length 3.937000
      axis 0.0 0.0 90.0 xyz
      dof rx rz ry
   end
   begin
      id 23
      name LeftShoulder
      direction 1.000000 0.000000 0.000000
      length 7.708937
      axis 0.0 0.0 -90.0 xyz
      dof rx ry rz
   end
   begin
      id 24
      name LeftArm
      direction 1.000000 0.000000 0.000000
      length 11.521345
      axis 0.0 0.0 -90.0 xyz
      dof rx ry rz
   end
   begin
      id 25
      name LeftForeArm
      direction 1.000000 0.000000 0.000000
      length 10.175898
      axis 0.0 0.0 -90.0 xyz
      dof ry rz rx
   end
   begin
      id 26
      name LeftHand
      direction 1.000000 0.000000 0.000000
      length 0.000000
      axis 0.0 0.0 -90.0 xyz
      dof rx ry rz
   end
   begin
      id 27
      name LeftHand_dum1
      direction 1.000000 0.000000 0.000000
      length 3.937000
      axis 0.0 0.0 -90.0 xyz
   end
   begin
      id 28
      name LeftHand_dum2
      direction 0.000000 0.000000 0.000000
      length 0.000000
      axis 0.0 0.0 -90.0 xyz
   end
   begin
      id 29
      name LeftHandThumb1
      direction 0.000000 0.000000 1.000000
      length 3.937000
      axis 0.0 0.0 -90.0 xyz
      dof rx rz ry
   end
   begin
      id 30
      name Head
      direction 0.000000 1.000000 0.000000
      length 4.527550
      axis 0.0 0.0 0.0 xyz
      dof rx ry rz
   end
:hierarchy
   begin
      root RightUpLeg_dum LeftUpLeg_dum Spine_dum
      RightUpLeg_dum RightUpLeg
      LeftUpLeg_dum LeftUpLeg
      Spine_dum Spine
      RightUpLeg RightLeg
      RightLeg RightFoot
      RightFoot RightToeBase
      LeftUpLeg LeftLeg
      LeftLeg LeftFoot
      LeftFoot LeftToeBase
      Spine Spine_dum1 Spine_dum2 Spine_dum3
      Spine_dum1 RightShoulder
      Spine_dum2 LeftShoulder
      Spine_dum3 Head
      RightShoulder RightArm
      RightArm RightForeArm
      RightForeArm RightHand
      RightHand RightHand_dum1 RightHand_dum2
      RightHand_dum2 RightHandThumb1
      LeftShoulder LeftArm
      LeftArm LeftForeArm
      LeftForeArm LeftHand
      LeftHand LeftHand_dum1 LeftHand_dum2
      LeftHand_dum2 LeftHandThumb1
   end

# File created by Blade
# Date/Time:  Thu Jan 22 16:36:26 2015
# Frame Rate: 120.000 fps
#------------------------------------------------------
:FULLY-SPECIFIED
:DEGREES
531
root 2.930372 3.783301 -10.432256 -50.787144 6.514524 0.462820
RightUpLeg -82.802395 -14.342474 2.212341
RightLeg 97.427151 -0.000000 -0.000000
RightFoot 11.141637 -21.714861 16.097949
RightToeBase 5.450444 -0.000000 -0.000000
LeftUpLeg -87.610419 13.921264 -11.980994
LeftLeg 107.978938 -0.000000 -0.000000
LeftFoot 11.191725 16.352899 -17.762072
LeftToeBase 7.369772 -0.000000 -0.000000
Spine 64.882613 -0.474606 -6.019884
RightShoulder 7.768356 -16.524015 -26.103753
RightArm 23.914025 -15.798525 70.497970
RightForeArm 82.921524 0.000000 43.860049
RightHand 4.385516 -0.000000 -18.579703
RightHandThumb1 -24.326973 -0.000000 -32.862282
LeftShoulder -16.115257 47.596607 16.166455
LeftArm 37.584109 30.953642 -69.847595
LeftForeArm -29.967555 -0.000000 60.770345
LeftHand -42.067607 0.000000 18.025283
LeftHandThumb1 -26.253704 0.000000 33.147579
Head 5.899917 6.371220 -5.070286
532
root 2.936659 3.771140 -10.435106 -51.018726 6.452655 0.467350
RightUpLeg -82.344993 -14.386756 2.278875
RightLeg 96.696314 -0.000000 -0.000000
RightFoot 11.291394 -22.031670 15.966081
RightToeBase 5.449157 -0.000000 -0.000000
LeftUpLeg -87.411413 13.972458 -11.898927
LeftLeg 107.972461 -0.000000 -0.000000
LeftFoot 11.253360 16.401003 -17.628284
LeftToeBase 7.397243 -0.000000 -0.000000
Spine 64.911266 -0.444339 -6.064639
RightShoulder 7.672264 -16.591451 -25.887561
RightArm 23.818167 -15.655217 70.418880
RightForeArm 82.950396 -0.000000 44.157102
RightHand 4.437560 -0.000000 -18.499673
RightHandThumb1 -24.326973 -0.000000 -32.862282
LeftShoulder -16.220397 47.612238 15.951726
LeftArm 37.333203 30.872754 -69.752407
LeftForeArm -30.053239 -0.000000 61.327288
LeftHand -42.343418 -0.000000 18.386165
LeftHandThumb1 -26.253704 0.000000 33.147579
Head 5.706705 6.516520 -5.046521
533
root 2.935372 3.760515 -10.438963 -51.276457 6.347920 0.440588
RightUpLeg -81.799134 -14.383196 2.347040
RightLeg 95.867001 -0.000000 -0.000000
RightFoot 11.438887 -22.223436 15.955595
RightToeBase 5.497315 -0.000000 -0.000000
LeftUpLeg -87.200261 14.051917 -11.735835
LeftLeg 107.979638 -0.000000 -0.000000
LeftFoot 11.367064 16.383122 -17.624928
LeftToeBase 7.153331 -0.000000 -0.000000
Spine 64.960257 -0.386925 -6.050446
RightShoulder 7.600841 -16.746363 -25.623625
RightArm 23.765043 -15.454177 70.238644
RightForeArm 82.981683 -0.000000 44.522285
RightHand 4.358907 -0.000000 -18.403082
RightHandThumb1 -24.326973 -0.000000 -32.862282
LeftShoulder -16.337864 47.686665 15.736432
LeftArm 37.180724 30.778243 -69.608347
LeftForeArm -30.147978 -0.000000 61.881995
LeftHand -42.691765 -0.000000 18.702706
LeftHandThumb1 -26.253704 0.000000 33.147579
Head 5.574473 6.630608 -4.947370
534
root 2.933380 3.748993 -10.440576 -51.525993 6.263971 0.411423
RightUpLeg -81.250663 -14.453548 2.446574
RightLeg 94.960366 -0.000000 -0.000000
RightFoot 11.664413 -22.371420 15.794885
RightToeBase 5.697319 -0.000000 -0.000000
LeftUpLeg -87.001840 14.119790 -11.595627
LeftLeg 107.993972 -0.000000 -0.000000
LeftFoot 11.448979 16.363653 -17.590465
LeftToeBase 7.065796 -0.000000 -0.000000
Spine 65.004891 -0.402193 -6.104168
RightShoulder 7.598289 -16.792958 -25.433097
RightArm 23.631812 -15.254454 70.180414
RightForeArm 82.943807 0.000000 44.878223
RightHand 4.355786 0.000000 -18.267304
RightHandThumb1 -24.326973 -0.000000 -32.862282
LeftShoulder -16.585512 47.781045 15.344526
LeftArm 37.024683 30.653251 -69.370728
LeftForeArm -30.249451 -0.000000 62.488459
LeftHand -43.067861 -0.000000 18.984940
LeftHandThumb1 -26.253704 0.000000 33.147579
Head 5.434007 6.779391 -4.938993
535
root 2.934848 3.734748 -10.445110 -51.776547 6.181003 0.383250
RightUpLeg -80.650544 -14.511379 2.509470
RightLeg 93.936898 -0.000000 -0.000000
RightFoot 11.958150 -22.414817 15.644282
RightToeBase 5.592984 -0.000000 -0.000000
LeftUpLeg -86.799350 14.174689 -11.469123
LeftLeg 107.995386 -0.000000 -0.000000
LeftFoot 11.461068 16.390248 -17.559680
LeftToeBase 7.173019 -0.000000 -0.000000
Spine 65.062307 -0.413913 -6.158451
RightShoulder 7.582659 -16.876610 -25.222496
RightArm 23.523551 -15.040554 70.058349
RightForeArm 82.860554 -0.000000 45.300208
RightHand 4.280879 -0.000000 -18.202181
RightHandThumb1 -24.326973 -0.000000 -32.862282
LeftShoulder -16.876589 47.871177 14.938839
LeftArm 36.898259 30.564039 -69.126309
LeftForeArm -30.322671 -0.000000 63.099438
LeftHand -43.338284 -0.000000 19.448034
LeftHandThumb1 -26.253704 0.000000 33.147579
Head 5.295087 6.939039 -4.878594
536
root 2.936832 3.720577 -10.450894 -52.035211 6.111307 0.346434
RightUpLeg -80.002670 -14.602429 2.555673
RightLeg 92.816436 -0.000000 -0.000000
RightFoot 12.200467 -22.404900 15.647060
RightToeBase 5.506398 -0.000000 -0.000000
LeftUpLeg -86.584507 14.216210 -11.350570
LeftLeg 107.984475 -0.000000 -0.000000
LeftFoot 11.480495 16.448211 -17.566890
LeftToeBase 7.197725 -0.000000 -0.000000
Spine 65.120910 -0.439286 -6.186818
RightShoulder 7.533292 -17.035601 -25.028166
RightArm 23.480325 -14.869057 69.901556
RightForeArm 82.565298 0.000000 45.758860
RightHand 4.282539 -0.000000 -18.164104
RightHandThumb1 -24.326973 -0.000000 -32.862282
LeftShoulder -17.095386 47.917630 14.558832
LeftArm 36.714809 30.457157 -68.914230
LeftForeArm -30.394659 -0.000000 63.729863
LeftHand -43.691221 -0.000000 19.936256
LeftHandThumb1 -26.253704 0.000000 33.147579
Head 5.202081 7.100685 -4.819063
